<svg xmlns="http://www.w3.org/2000/svg" version="1.1" xmlns:xlink="http://www.w3.org/1999/xlink" xmlns:svgjs="http://svgjs.com/svgjs" width="1440" height="1024" preserveAspectRatio="none" viewBox="0 0 1440 1024"><g mask="url(&quot;#SvgjsMask1016&quot;)" fill="none"><rect width="1440" height="1024" x="0" y="0" fill="#0e2a47"></rect><path d="M-142.72 6.18 a148.9 148.9 0 1 0 297.8 0 a148.9 148.9 0 1 0 -297.8 0z" fill="rgba(0, 119, 247, 0.4)" class="triangle-float2"></path><path d="M263.979,533.724C357.255,531.615,431.845,468.533,481.883,389.786C536.875,303.242,583.208,198.017,534.697,107.68C484.391,14,370.101,-22.693,263.979,-15.997C168.895,-9.998,93.559,55.579,46.602,138.476C0.432,219.984,-16.826,317.958,28.317,400.039C74.964,484.856,167.206,535.912,263.979,533.724" fill="rgba(0, 119, 247, 0.4)" class="triangle-float1"></path><path d="M69.268,201.009C112.617,200.284,141.397,160.957,162.12,122.876C181.683,86.926,191.862,45.643,173.803,8.915C153.533,-32.31,115.181,-67.496,69.268,-65.965C25.09,-64.491,-3.692,-23.833,-23.848,15.507C-41.881,50.703,-46.865,90.73,-29.123,126.074C-9.3,165.564,25.088,201.748,69.268,201.009" fill="rgba(0, 119, 247, 0.4)" class="triangle-float3"></path><path d="M1086.33 12.33 a161.2 161.2 0 1 0 322.4 0 a161.2 161.2 0 1 0 -322.4 0z" fill="rgba(0, 119, 247, 0.4)" class="triangle-float2"></path><path d="M1432.927,415.295C1517.507,421.599,1605.98,395.438,1652.207,324.328C1702.332,247.221,1705.211,146.718,1659.338,67.009C1613.361,-12.88,1524.846,-63.537,1432.927,-56.69C1350.064,-50.518,1294.243,21.986,1258.261,96.884C1227.54,160.831,1229.67,233.18,1263.79,295.379C1299.415,360.323,1359.059,409.789,1432.927,415.295" fill="rgba(0, 119, 247, 0.4)" class="triangle-float3"></path><path d="M1086.81 11.86 a160.25 160.25 0 1 0 320.5 0 a160.25 160.25 0 1 0 -320.5 0z" fill="rgba(0, 119, 247, 0.4)" class="triangle-float3"></path><path d="M-115.48 798.15 a94.43 94.43 0 1 0 188.86 0 a94.43 94.43 0 1 0 -188.86 0z" fill="rgba(0, 119, 247, 0.4)" class="triangle-float2"></path><path d="M-217.76 900.43 a298.99 298.99 0 1 0 597.98 0 a298.99 298.99 0 1 0 -597.98 0z" fill="rgba(0, 119, 247, 0.4)" class="triangle-float1"></path><path d="M-129.76 812.42 a122.98 122.98 0 1 0 245.96 0 a122.98 122.98 0 1 0 -245.96 0z" fill="rgba(0, 119, 247, 0.4)" class="triangle-float2"></path><path d="M1341.281,1078.256C1396.689,1081.641,1448.376,1051.17,1477.828,1004.116C1509.282,953.864,1520.948,890.005,1491.212,838.718C1461.552,787.561,1400.407,767.682,1341.281,768.602C1283.953,769.494,1224.901,792.001,1199.223,843.264C1175.357,890.91,1203.301,943.423,1230.869,989.027C1257.107,1032.43,1290.658,1075.163,1341.281,1078.256" fill="rgba(0, 119, 247, 0.4)" class="triangle-float2"></path><path d="M1376.658,1120.03C1433.02,1115.809,1481.862,1086.573,1512.628,1039.16C1546.941,986.28,1574.134,919.429,1542.023,865.184C1510.266,811.536,1438.994,808.511,1376.658,809.463C1316.587,810.38,1254.177,820.823,1219.812,870.102C1180.278,926.794,1163.421,1004.016,1200.16,1062.558C1235.41,1118.728,1310.528,1124.982,1376.658,1120.03" fill="rgba(0, 119, 247, 0.4)" class="triangle-float3"></path><path d="M1023.08 894.8 a287.72 287.72 0 1 0 575.44 0 a287.72 287.72 0 1 0 -575.44 0z" fill="rgba(0, 119, 247, 0.4)" class="triangle-float3"></path></g><defs><mask id="SvgjsMask1016"><rect width="1440" height="1024" fill="#ffffff"></rect></mask><style>
            @keyframes float1 {
                0%{transform: translate(0, 0)}
                50%{transform: translate(-10px, 0)}
                100%{transform: translate(0, 0)}
            }

            .triangle-float1 {
                animation: float1 5s infinite;
            }

            @keyframes float2 {
                0%{transform: translate(0, 0)}
                50%{transform: translate(-5px, -5px)}
                100%{transform: translate(0, 0)}
            }

            .triangle-float2 {
                animation: float2 4s infinite;
            }

            @keyframes float3 {
                0%{transform: translate(0, 0)}
                50%{transform: translate(0, -10px)}
                100%{transform: translate(0, 0)}
            }

            .triangle-float3 {
                animation: float3 6s infinite;
            }
        </style></defs></svg>