<svg xmlns="http://www.w3.org/2000/svg" version="1.1" xmlns:xlink="http://www.w3.org/1999/xlink" xmlns:svgjs="http://svgjs.com/svgjs" width="1440" height="1024" preserveAspectRatio="none" viewBox="0 0 1440 1024"><g mask="url(&quot;#SvgjsMask1021&quot;)" fill="none"><rect width="1440" height="1024" x="0" y="0" fill="#0e2a47"></rect><path d="M-232.57 96.04 a328.61 328.61 0 1 0 657.22 0 a328.61 328.61 0 1 0 -657.22 0z" fill="rgba(0, 119, 247, 0.4)" class="triangle-float3"></path><path d="M-112.01 -24.52 a87.49 87.49 0 1 0 174.98 0 a87.49 87.49 0 1 0 -174.98 0z" fill="rgba(0, 119, 247, 0.4)" class="triangle-float3"></path><path d="M-222.58 86.05 a308.63 308.63 0 1 0 617.26 0 a308.63 308.63 0 1 0 -617.26 0z" fill="rgba(0, 119, 247, 0.4)" class="triangle-float3"></path><path d="M1090.51 8.15 a152.84 152.84 0 1 0 305.68 0 a152.84 152.84 0 1 0 -305.68 0z" fill="rgba(0, 119, 247, 0.4)" class="triangle-float1"></path><path d="M1378.101,313.362C1439.807,315.608,1497.428,283.067,1529.751,230.456C1563.708,175.186,1573.833,104.785,1540.396,49.199C1507.784,-5.014,1441.346,-20.012,1378.101,-21.647C1310.941,-23.383,1233.103,-18.375,1200.593,40.417C1168.622,98.234,1208.421,164.683,1244.441,220.069C1276.19,268.887,1319.906,311.243,1378.101,313.362" fill="rgba(0, 119, 247, 0.4)" class="triangle-float3"></path><path d="M1384.578,356.323C1454.602,357.593,1509.646,302.425,1542.975,240.828C1574.517,182.533,1580.222,112.955,1547.424,55.358C1514.298,-2.816,1451.518,-36.608,1384.578,-37.336C1316.297,-38.079,1248.185,-8.195,1215.476,51.747C1183.879,109.651,1203.811,177.585,1235.83,235.257C1269.09,295.162,1316.07,355.08,1384.578,356.323" fill="rgba(0, 119, 247, 0.4)" class="triangle-float1"></path><path d="M61.771,1001.838C102.309,1000.514,132.569,968.672,152.175,933.165C171.003,899.068,179.735,857.834,159.745,824.405C140.169,791.668,99.895,780.792,61.771,781.982C25.962,783.1,-6.771,800.077,-26.149,830.21C-47.41,863.272,-57.398,904.441,-39.476,939.426C-20.103,977.245,19.302,1003.225,61.771,1001.838" fill="rgba(0, 119, 247, 0.4)" class="triangle-float1"></path><path d="M53.616,967.671C90.263,968.849,129.719,959.093,147.965,927.289C166.149,895.594,152.852,857.713,134.986,825.837C116.587,793.01,91.237,759.878,53.616,758.951C14.843,757.995,-17.143,787.223,-35.011,821.647C-51.468,853.351,-49.315,891.005,-30.781,921.542C-12.952,950.917,19.272,966.567,53.616,967.671" fill="rgba(0, 119, 247, 0.4)" class="triangle-float3"></path><path d="M-146.28 828.95 a156.03 156.03 0 1 0 312.06 0 a156.03 156.03 0 1 0 -312.06 0z" fill="rgba(0, 119, 247, 0.4)" class="triangle-float2"></path><path d="M1362.987,1104.529C1420.079,1106.243,1472.593,1076.154,1503.379,1028.043C1536.972,975.545,1553.078,909.195,1522.864,854.682C1491.906,798.828,1426.832,773.35,1362.987,774.747C1301.664,776.089,1242.902,806.908,1214.784,861.422C1188.566,912.252,1206.701,971.198,1236.471,1020.032C1264.764,1066.442,1308.657,1102.898,1362.987,1104.529" fill="rgba(0, 119, 247, 0.4)" class="triangle-float2"></path><path d="M1139.24 778.62 a55.38 55.38 0 1 0 110.76 0 a55.38 55.38 0 1 0 -110.76 0z" fill="rgba(0, 119, 247, 0.4)" class="triangle-float2"></path><path d="M1318.025,1031.982C1364.129,1030.903,1405.509,1005.781,1429.043,966.121C1453.104,925.573,1458.831,875.173,1435.33,834.298C1411.763,793.309,1365.275,771.324,1318.025,773.029C1273.565,774.634,1237.596,804.229,1214.524,842.268C1190.369,882.092,1175.316,930.651,1197.623,971.539C1220.675,1013.792,1269.906,1033.108,1318.025,1031.982" fill="rgba(0, 119, 247, 0.4)" class="triangle-float1"></path></g><defs><mask id="SvgjsMask1021"><rect width="1440" height="1024" fill="#ffffff"></rect></mask></defs></svg>